<svg x="0" y="0" width="700" height="350" viewBox="0 0 700 350" xmlns="http://www.w3.org/2000/svg" xmlns:xlink="http://www.w3.org/1999/xlink" xmlns:fi="http://pattern.flaticon.com/"><rect x="0px" y="0px" width="100%" height="100%" opacity="1" fill="#000000"/><defs><g transform="matrix(0.11717742681503296 0 0 0.11717742681503296 8.999995231628418 114)" id="L1_2"><g><path d="m162.685 148.727c-36.813 28.207-60.661 72.592-60.661 122.276v61.743c0 38.5-18.617 83.599-51.616 105.599-33 21.999-6.961 89.123 55.001 53.349 34.989-20.201 48.789 10.304 79.38 10.304 34.991 0 34.385-17.05 71.234-17.05s36.243 17.05 71.234 17.05c30.591 0 44.391-30.505 79.38-10.304 61.961 35.773 88-31.35 55.001-53.349-33-22-51.616-67.099-51.616-105.599v-61.743c0-49.684-23.851-94.063-60.664-122.267l16.1-60.087c13.339-3.586 24.454-13.99 28.286-28.29 5.717-21.339-6.946-43.272-28.284-48.99s-43.272 6.946-48.99 28.284c-3.832 14.301.593 28.868 10.351 38.643l-13.368 49.889c-17.77-7.201-37.157-11.181-57.43-11.181s-39.663 3.971-57.432 11.173l-13.366-49.881c9.758-9.775 14.183-24.342 10.351-38.643-5.718-21.338-27.651-34.002-48.99-28.284-21.339 5.717-34.002 27.651-28.284 48.99 3.832 14.301 14.947 24.704 28.286 28.29zm13.337 189.215c0-43.321 35.817-78.441 80-78.441s80 35.119 80 78.441c0 11.907-35.817 21.56-80 21.56-44.183-.001-80-9.653-80-21.56z" fill="#ff5d7d"/><path d="m256.022 259.501c-44.183 0-80 35.119-80 78.441 0 11.907 35.817 21.56 80 21.56s80-9.652 80-21.56c0-43.321-35.817-78.441-80-78.441z" fill="#ffffff"/></g><g><path d="m485.461 458.8c-1.889-11.958-8.38-22.178-18.278-28.775-27.769-18.513-47.163-58.516-47.163-97.279v-61.743c0-48.992-21.55-94.594-59.314-125.988l13.025-48.609c14.465-5.83 25.585-18.213 29.67-33.459 7.135-26.631-8.725-54.102-35.355-61.237-26.633-7.138-54.102 8.725-61.237 35.354-4.085 15.246-.646 31.531 8.966 43.813l-9.158 34.177c-16.316-5.34-33.288-8.05-50.596-8.05-17.313 0-34.289 2.71-50.598 8.044l-9.156-34.171c9.612-12.282 13.051-28.567 8.966-43.813-7.136-26.63-34.604-42.49-61.237-35.354-26.63 7.135-42.491 34.606-35.355 61.237 4.085 15.246 15.206 27.629 29.67 33.459l13.023 48.601c-37.762 31.395-59.312 76.999-59.312 125.996v61.743c0 38.763-19.394 78.766-47.163 97.278-9.897 6.598-16.389 16.817-18.278 28.776-1.728 10.934.646 22.622 6.514 32.069 7.173 11.549 20.537 21.177 39.111 21.175 10.98-.001 23.785-3.367 38.2-11.69 16.789-9.693 25.911-5.208 39.721 1.583 9.592 4.716 20.463 10.061 34.66 10.061 19.558 0 29.848-4.97 38.927-9.355 8.549-4.129 15.933-7.695 32.307-7.695s23.757 3.566 32.306 7.695c9.079 4.385 19.369 9.355 38.927 9.355 14.197 0 25.068-5.345 34.66-10.061 13.81-6.79 22.933-11.275 39.721-1.583 38.801 22.402 65.897 8.892 77.311-9.485 5.868-9.447 8.243-21.135 6.515-32.069zm-23.504 21.517c-9.095 14.643-27.907 15.658-50.321 2.717-26.034-15.031-44.061-6.167-58.545.955-8.377 4.119-16.29 8.009-25.835 8.009-14.981 0-22.047-3.413-30.229-7.364-9.4-4.54-20.054-9.686-41.004-9.686-20.951 0-31.605 5.146-41.005 9.686-8.182 3.952-15.248 7.364-30.229 7.364-9.545 0-17.458-3.891-25.835-8.009-14.485-7.122-32.513-15.986-58.545-.955-22.415 12.94-41.227 11.926-50.322-2.718-6.282-10.114-5.825-25.855 5.868-33.651 17.148-11.432 31.567-28.966 41.7-50.708 9.266-19.882 14.369-42.331 14.369-63.211v-61.743c0-39.873 16.282-77.194 45.097-104.406l7.896 29.466c1.427 5.327-1.745 10.821-7.072 12.249-5.334 1.43-8.5 6.913-7.07 12.248 1.197 4.467 5.238 7.414 9.653 7.414.857 0 1.728-.111 2.595-.343 15.978-4.282 25.494-20.765 21.212-36.743l-28.089-104.827c-.924-3.448-3.616-6.142-7.063-7.069-10.327-2.776-18.459-10.908-21.223-21.221-4.281-15.979 5.235-32.461 21.213-36.743 15.979-4.281 32.46 5.234 36.742 21.213 2.763 10.313-.213 21.422-7.769 28.99-2.522 2.526-3.506 6.205-2.582 9.653l17.635 65.814c4.281 15.978 20.763 25.497 36.743 21.213 5.334-1.429 8.5-6.913 7.071-12.248-1.43-5.334-6.914-8.501-12.248-7.071-2.58.692-5.275.337-7.588-.999s-3.968-3.492-4.66-6.073l-1.91-7.128c14.617-4.903 29.859-7.39 45.414-7.39 15.549 0 30.786 2.493 45.411 7.401l-1.907 7.117c-1.427 5.326-6.921 8.499-12.248 7.072-5.337-1.43-10.818 1.736-12.248 7.071s1.736 10.818 7.071 12.248c15.979 4.282 32.462-5.235 36.743-21.213l17.635-65.814c.924-3.448-.06-7.127-2.582-9.653-7.556-7.568-10.532-18.677-7.769-28.99 4.281-15.978 20.762-25.493 36.743-21.213 15.978 4.281 25.494 20.764 21.213 36.742-2.764 10.313-10.896 18.445-21.223 21.221-3.447.927-6.139 3.621-7.063 7.069l-28.089 104.827c-4.281 15.978 5.235 32.46 21.212 36.743.868.232 1.738.343 2.595.343 4.415 0 8.456-2.946 9.653-7.414 1.43-5.335-1.736-10.818-7.07-12.248-5.327-1.427-8.499-6.922-7.072-12.248l7.894-29.459c28.816 27.21 45.099 64.53 45.099 104.398v61.743c0 20.88 5.103 43.329 14.369 63.211 10.133 21.742 24.553 39.277 41.7 50.709 11.695 7.796 12.152 23.537 5.869 33.652z"/><path d="m196.851 362.842c15.935 4.294 36.948 6.659 59.171 6.659 22.222 0 43.236-2.365 59.17-6.659 20.457-5.513 30.829-13.89 30.829-24.9 0-48.767-40.374-88.441-90-88.441s-90 39.674-90 88.441c.001 11.01 10.374 19.387 30.83 24.9zm-10.818-26.107c.171-9.625 2.399-18.764 6.248-27.036l15.663 35.28c-12.159-2.64-19.605-5.901-21.911-8.244zm49.963 12.074 20.027-56.557 20.026 56.557c-6.155.438-12.828.692-20.026.692-7.2 0-13.873-.255-20.027-.692zm68.103-3.829 15.663-35.28c3.849 8.272 6.077 17.411 6.248 27.036-2.305 2.342-9.751 5.603-21.911 8.244zm2.305-54.479-16.57 37.321-20.187-57.013c14.291 2.769 27.02 9.81 36.757 19.692zm-64.006-19.691-20.188 57.013-16.57-37.321c9.738-9.883 22.467-16.924 36.758-19.692z"/><path d="m154.195 40.39-.007.002c-5.311 1.517-8.382 7.051-6.865 12.361 1.255 4.393 5.26 7.255 9.613 7.255.91 0 1.835-.125 2.753-.388 5.311-1.517 8.385-7.052 6.868-12.362-1.517-5.311-7.053-8.387-12.362-6.868z"/><path d="m352.355 59.62.007.002c.918.262 1.842.387 2.751.387 4.351 0 8.353-2.864 9.608-7.256 1.517-5.31-1.561-10.846-6.872-12.363-5.308-1.515-10.845 1.558-12.362 6.868s1.558 10.845 6.868 12.362z"/><path d="m210.035 436.397c-1.079.107-2.221.161-3.395.161-8.88 0-13.17-2.887-19.109-6.882-6.813-4.584-15.292-10.29-30.273-10.29s-23.46 5.705-30.273 10.29c-5.938 3.996-10.229 6.882-19.108 6.882-5.523 0-10 4.477-10 10s4.477 10 10 10c14.982 0 23.461-5.705 30.273-10.29 5.938-3.996 10.229-6.882 19.108-6.882 8.88 0 13.17 2.887 19.108 6.882 6.813 4.584 15.292 10.29 30.274 10.29 1.828 0 3.631-.087 5.361-.257 5.496-.543 9.511-5.438 8.969-10.935-.543-5.497-5.436-9.507-10.935-8.969z"/><path d="m404.167 436.557c-8.88 0-13.17-2.887-19.108-6.882-6.813-4.584-15.292-10.29-30.273-10.29-14.982 0-23.461 5.705-30.274 10.29-5.938 3.996-10.228 6.882-19.108 6.882-1.174 0-2.318-.054-3.401-.161-5.489-.54-10.392 3.471-10.936 8.967s3.471 10.392 8.967 10.936c1.734.172 3.541.259 5.37.259 14.982 0 23.46-5.705 30.273-10.29 5.938-3.996 10.229-6.882 19.108-6.882s13.17 2.887 19.108 6.882c6.813 4.584 15.292 10.29 30.274 10.29 5.523 0 10-4.477 10-10s-4.477-10.001-10-10.001z"/><path d="m256.022 419.385h-.007c-5.523 0-9.996 4.477-9.996 10s4.48 10 10.003 10 10-4.477 10-10-4.477-10-10-10z"/></g></g><g transform="matrix(0.9375 0 0 0.9375 93 19)" id="L1_23"><path d="m39 27h1a6 6 0 0 0 6-6v-6h4a2.286 2.286 0 0 0 1.973-2c.2-1.253-.758-2-1.973-2h-4a4 4 0 0 0 -4 4v6a2 2 0 0 1 -4 0v-14h3a2 2 0 0 0 0-4h-4a3 3 0 0 0 -3 3v15a2 2 0 0 1 -4 0v-16a2.286 2.286 0 0 0 -2-1.973c-1.253-.2-2 .758-2 1.973v16a2 2 0 0 1 -4 0v-15a3 3 0 0 0 -3-3h-4.893a2.4 2.4 0 0 0 -2.08 2c-.2 1.253.758 2 1.973 2h4v14a6 6 0 0 0 6 6 13 13 0 0 0 -13 13v1a20 20 0 0 0 20 20h2a20 20 0 0 0 20-20 14.041 14.041 0 0 0 -14-14z" fill="#b459a1"/><path d="m38 51h-12c-6 0-8-6-8-6s2-6 8-6h12c6 0 8 6 8 6s-2 6-8 6z" fill="#ffd782"/><rect x="26px" y="39px" width="12px" height="12px" fill="#394d5c"/><g fill="#5e2c81"><path d="m18 14h4v4h-4z"/><path d="m26 9h4v4h-4z"/><path d="m34 15h4v4h-4z"/><path d="m42 17h4v4h-4z"/></g><path d="m31 30h2v2h-2z"/><path d="m27 30h2v2h-2z"/><path d="m35 30h2v2h-2z"/><path d="m29 34h2v2h-2z"/><path d="m33 34h2v2h-2z"/><path d="m10 40v1a21.024 21.024 0 0 0 21 21h2a21.024 21.024 0 0 0 21-21 15.028 15.028 0 0 0 -10.111-14.183 7 7 0 0 0 3.111-5.817v-5h3a3.263 3.263 0 0 0 2.959-2.84 2.608 2.608 0 0 0 -.557-2.149 3.112 3.112 0 0 0 -2.402-1.011h-4a5.006 5.006 0 0 0 -5 5v6a1 1 0 0 1 -2 0v-13h2a3 3 0 0 0 0-6h-4a4 4 0 0 0 -4 4v15a1 1 0 0 1 -2 0v-16a3.266 3.266 0 0 0 -2.839-2.96 2.613 2.613 0 0 0 -2.15.557 3.12 3.12 0 0 0 -1.011 2.403v16a1 1 0 0 1 -2 0v-15a4 4 0 0 0 -4-4h-4.893a3.4 3.4 0 0 0 -3.066 2.84 2.608 2.608 0 0 0 .559 2.149 3.112 3.112 0 0 0 2.4 1.011h3v13a7 7 0 0 0 2.844 5.63 14.024 14.024 0 0 0 -9.844 13.37zm33-25a3 3 0 0 1 3-3h4a1.162 1.162 0 0 1 .879.307.592.592 0 0 1 .107.532c-.096.586-.586 1.161-.986 1.161h-4a1 1 0 0 0 -1 1v1h-2zm0 3h2v2h-2zm-8-12a2 2 0 0 1 2-2h4a1 1 0 0 1 0 2h-3a1 1 0 0 0 -1 1v7h-2zm0 10h2v2h-2zm-8-11a1.164 1.164 0 0 1 .307-.879.573.573 0 0 1 .532-.106c.586.094 1.161.585 1.161.985v3h-2zm0 5h2v2h-2zm-9-4h-4a1.162 1.162 0 0 1 -.879-.307.592.592 0 0 1 -.107-.532c.092-.561.654-1.161 1.093-1.161h4.893a2 2 0 0 1 2 2v7h-2v-6a1 1 0 0 0 -1-1zm3 9v2h-2v-2zm3 13h12v-2h-12a5.006 5.006 0 0 1 -5-5v-2h2v2a3 3 0 0 0 6 0v-7h2v7a3 3 0 0 0 6 0v-1h2v1a2.993 2.993 0 0 0 5.816 1h2.084a5.009 5.009 0 0 1 -4.9 4h-1a1 1 0 0 0 0 2 13.015 13.015 0 0 1 13 13 19.021 19.021 0 0 1 -19 19h-2a19.021 19.021 0 0 1 -19-19v-1a12.013 12.013 0 0 1 12-12z"/><path d="m26 52h12c5.316 0 8.178-4.372 8.949-6.684a1 1 0 0 0 0-.632c-.771-2.312-3.633-6.684-8.949-6.684h-12c-5.316 0-8.178 4.372-8.949 6.684a1 1 0 0 0 0 .632c.771 2.312 3.633 6.684 8.949 6.684zm12-12c4.5 0 6.448 3.846 6.929 5-.483 1.157-2.429 5-6.929 5h-1.111a6.977 6.977 0 0 0 0-10zm-6 0a5 5 0 1 1 -5 5 5.006 5.006 0 0 1 5-5zm-6 0h1.111a6.977 6.977 0 0 0 0 10h-1.111c-4.5 0-6.448-3.846-6.929-5 .483-1.157 2.429-5 6.929-5z"/><path d="m31 43h2v4h-2z"/><path d="m46.192 35.589a9.589 9.589 0 0 1 1.808 5.428l2-.034a11.611 11.611 0 0 0 -2.192-6.572 11.744 11.744 0 0 0 -6.57-4.383l-.476 1.944a9.7 9.7 0 0 1 5.43 3.617z"/><path d="m28 55h8v2h-8z"/></g><g transform="matrix(1 0 0 1 88 232)" id="L1_22" fill="none"><g fill="#607d8b"><path d="m10.51 41.3-4.07 11.7c.52745974.0782908 1.02452033.2957548 1.44.63l7.43-10c-.91-.34-1.75-1.71-2.55-2.1s-1.55.21-2.25-.23z" id="L1_4"/><path d="m49.49 41.3 4.07 11.7c-.5274597.0782908-1.0245203.2957548-1.44.63l-7.43-10c.9-.33 1.74-1.7 2.53-2.08s1.56.19 2.27-.25z" id="L1_5"/><path d="m30 45c-.81 0-1.59 1-2.35 1l1.71 5.12c.4219274-.0899348.8580726-.0899348 1.28 0l1.71-5.12c-.76 0-1.54-1-2.35-1z" id="L1_7"/></g><circle cx="6" cy="56" r="3" id="L1_6" fill="#ef314c"/><circle cx="30" cy="54" r="3" id="L1_12" fill="#ef314c"/><path d="m57 56c-.0009336 1.4556384-1.0466857 2.7005654-2.4803179 2.9527216-1.4336323.2521561-2.8414129-.5612283-3.3389785-1.9291876-.4975655-1.3679593.0586764-2.8957143 1.3192964-3.623534.9285009-.5360705 2.0725043-.5358873 3.0008334.0004806.9283291.536368 1.4998543 1.527379 1.4991666 2.5995194z" id="L1_8" fill="#bb193b"/><path d="m52.5 58.6c-.9300833-.5353928-1.503337-1.526827-1.503337-2.6s.5732537-2.0646072 1.503337-2.6c.9300833.5353928 1.503337 1.526827 1.503337 2.6s-.5732537 2.0646072-1.503337 2.6z" id="L1_9" fill="#ef314c"/><path d="m51 23c0 9-9 12-21 12-6.67 0-16.14-.91-19.6-6.64 3.87-19.36 17.99-22.54 29.21-24.92 7.1007859 3.93340486 11.4736996 11.4429914 11.39 19.56z" id="L1_10" fill="#549414"/><path d="m39.61 3.44c-10.61 2.26-25.9 8.37-29.21 24.92-.96212039-1.6191735-1.4474109-3.4771429-1.4-5.36 0-16.74 16.93-27 30.61-19.56z" id="L1_11" fill="#60a917"/><path d="m40 26c0-1.1045695-.8954305-2-2-2v-1c0-4.418278-3.581722-8-8-8s-8 3.581722-8 8v1c-1.1045695 0-2 .8954305-2 2 0 2 2 3 2 5v3.44c5.3073165.7450009 10.6926835.7450009 16 0v-3.44c0-2 2-3 2-5z" id="L1_14" fill="#9d27b0"/><circle cx="16" cy="19" r="2" id="L1_13" fill="#673ab7"/><circle cx="44" cy="19" r="2" id="Oval" fill="#673ab7"/><path d="m31.59 27.83c-1.0475095.2301295-2.1324905.2301295-3.18 0-3.21-.7-3.21-3 0-3.66 1.0475095-.2301295 2.1324905-.2301295 3.18 0 3.21.7 3.21 2.96 0 3.66z" id="L1_15" fill="#607d8b"/><path d="m54 27c0 7.73-10.75 14-24 14s-24-6.27-24-14c.08742469-2.6653432 1.23583171-5.1853586 3.19-7-.13025656.994635-.19373202 1.9968791-.19 3 0 9 9 12 21 12s21-3 21-12c.0034041-1.0031111-.06007-2.0053334-.19-3 1.9541683 1.8146414 3.1025753 4.3346568 3.19 7z" id="L1_16" fill="#3f51b5"/><path d="m58.85 30c-1.56 4-7 16-28.85 16s-27.29-12-28.85-16c-.3585675-.914232-.07386809-1.9554184.7-2.56 1.4573102-1.0971279 2.98380653-2.0992043 4.57-3-.2783477.8247994-.42021253 1.6894993-.42 2.56 0 7.73 10.75 14 24 14s24-6.27 24-14c.0013029-.8738558-.1405764-1.7420216-.42-2.57 1.5861935.9007957 3.1126898 1.9028721 4.57 3 .7784272.6059867 1.0635942 1.6529568.7 2.57z" id="L1_17" fill="#7f8e94"/><g id="Outline" fill="#000000"><path d="m9.3 41.73-3.57 10.27c-1.82800293.1119038-3.34651217 1.4509895-3.68619007 3.2506384s.58625122 3.6001144 2.24769834 4.3706406c1.66144713.7705262 3.6339714.314271 4.78831421-1.1075623 1.15434282-1.4218333 1.19561052-3.4460165.10017752-4.9137167l6.49-8.77c3.6351486 1.2126487 7.4215749 1.9127169 11.25 2.08l1.19 3.59c-1.616232.8664961-2.4362193 2.7210542-1.9895161 4.499671s2.0456618 3.0256517 3.8795161 3.0256517 3.4328129-1.2470349 3.8795161-3.0256517-.3732841-3.6331749-1.9895161-4.499671l1.19-3.59c3.8284251-.1672831 7.6148514-.8673513 11.25-2.08l6.49 8.77c-1.095433 1.4677002-1.0541653 3.4918834.1001775 4.9137167s3.1268671 1.8780885 4.7883142 1.1075623c1.6614472-.7705262 2.5873763-2.5709917 2.2476984-4.3706406s-1.8581872-3.1387346-3.6861901-3.2506384l-3.57-10.27c4.1514612-2.7359894 7.3300277-6.7161988 9.08-11.37.511673-1.3224003.1069592-2.8238887-1-3.71-1.394648-1.0570173-2.8541759-2.0255827-4.37-2.9-.5750661-1.5558421-1.4711549-2.9732297-2.63-4.16-1.61-11.07-10.78-19.59-21.78-19.59s-20.17 8.52-21.76 19.59c-1.15930809 1.184508-2.05252745 2.6027494-2.62 4.16-1.51620781.8701268-2.97579498 1.8353915-4.37 2.89-1.12006017.8819175-1.52689737 2.3953519-1 3.72 1.74205022 4.6495983 4.90970598 8.629294 9.05 11.37zm-3.3 16.27c-.87139377.0043426-1.64530397-.5560158-1.91314729-1.3852359-.26784331-.8292201.03203648-1.7364194.74131883-2.2426452.70928235-.5062257 1.66469396-.4949472 2.36182846.0278811.68723829.5154065.96858687 1.4121022.69897622 2.227731-.26961064.8156289-1.02995236 1.3679881-1.88897622 1.372269zm1.83-6 3.22-9.25c.85.47 1.76.89 2.69 1.29zm22.17 4c-1.1045695 0-2-.8954305-2-2s.8954305-2 2-2 2 .8954305 2 2-.8954305 2-2 2zm0-6.16-.95-2.84h.95 1zm26 6.16c0 1.1045695-.8954305 2-2 2s-2-.8954305-2-2 .8954305-2 2-2 2 .8954305 2 2zm-3.83-4-5.91-8c.93-.4 1.84-.82 2.69-1.29zm-44.8-27.25c.15907448-.5295123.37010043-1.0420039.63-1.53.14 8.48 7.53 12.78 22 12.78s21.86-4.3 22-12.78c.6321497 1.1613726.9751629 2.4579627 1 3.78 0 7.17-10.32 13-23 13-14.16 0-25.29-7.36-22.63-15.25zm14.46 3.25c-.4720599-.5676903-.7613923-1.264877-.83-2-.0286468-.2729969.0674658-.5443384.2615637-.7384363s.4654394-.2902105.7384363-.2615637c.5522847 0 1-.4477153 1-1v-1c0-3.8659932 3.1340068-7 7-7s7 3.1340068 7 7v1c0 .5522847.4477153 1 1 1 .2729969-.0286468.5443384.0674658.7384363.2615637s.2902105.4654394.2615637.7384363c-.0686077.735123-.3579401 1.4323097-.83 2-1.36 2-1.17 2.21-1.17 5.58-4.6498647.5600321-9.3501353.5600321-14 0 0-3.22.23-3.58-1.17-5.58zm8.17-26c11.09 0 20 9.5 20 21 0 5.4-3.7 8.83-11 10.25 0-2.8-.18-2.68.83-4.2.7014039-.8681197 1.1108595-1.9355039 1.17-3.05.0635975-1.2910572-.7617747-2.4589589-2-2.83.0403301-2.5635381-1.0145899-5.0225931-2.9-6.76 2.92-2.53 6.17-4 6.83-.2-1.3775467.4870363-2.2038721 1.8956662-1.9567957 3.3357331.2470764 1.4400668 1.4956868 2.492694 2.9567957 2.492694s2.7097193-1.0526272 2.9567957-2.492694c.2470764-1.4400669-.579249-2.8486968-1.9567957-3.3357331-.0938001-1.6979968-1.0790452-3.2196109-2.59-4-2.06-.88-4.71.14-7.89 3-2.7581893-1.5996186-6.1618107-1.5996186-8.92 0-3.18-2.86-5.84-3.88-7.89-3-1.5109548.7803891-2.4961999 2.3020032-2.59 4-1.3775467.4870363-2.2038721 1.8956662-1.9567957 3.3357331.2470764 1.4400668 1.4956868 2.492694 2.9567957 2.492694s2.7097193-1.0526272 2.9567957-2.492694c.2470764-1.4400669-.579249-2.8486968-1.9567957-3.3357331.66-3.81 3.93-2.31 6.83.2-1.8844547 1.7364454-2.933186 4.1980508-2.88 6.76-1.2382253.3710411-2.0635975 1.5389428-2 2.83.0591405 1.1144961.4685961 2.1818803 1.17 3.05 1 1.53.83 1.41.83 4.2-7.3-1.42-11-4.85-11-10.25 0-11.47 8.89-21 20-21zm14 16c.5522847 0 1 .4477153 1 1s-.4477153 1-1 1-1-.4477153-1-1 .4477153-1 1-1zm-28 0c.5522847 0 1 .4477153 1 1s-.4477153 1-1 1-1-.4477153-1-1 .4477153-1 1-1zm-13.54 10.23c.75-.58 1.59-1.17 2.56-1.78v.55c0 8.27 11.22 15 25 15s25-6.73 25-15c0-.18 0-.37 0-.55 1 .61 1.81 1.21 2.57 1.79.4140727.336929.5635417.9024872.37 1.4-3.96 10.05-13.61 15.36-27.96 15.36s-24-5.31-27.92-15.36c-.19622461-.5024777-.0421498-1.0741764.38-1.41z" id="L1_18"/><path d="m30 11c.5522847 0 1-.4477153 1-1v-3c0-.55228475-.4477153-1-1-1s-1 .44771525-1 1v3c0 .5522847.4477153 1 1 1z" id="L1_19"/><path d="m34 12c.53 0 .67-.26 1.71-1.29.3921221-.3921222.3921221-1.02787781 0-1.41999996-.3921222-.39212216-1.0278778-.39212218-1.42-.00000004l-1 1c-.2884599.2860905-.3751619.7182668-.219371 1.0934815.155791.3752147.5231059.6188811.929371.6165185z" id="L1_20"/><path d="m25.29 11.71c.3921222.3921222 1.0278778.3921222 1.42 0s.3921222-1.0278778 0-1.42l-1-1c-.2536586-.25365857-.623374-.35272352-.969878-.25987804-.3465041.09284548-.6171546.36349595-.71.71-.0928455.34650404.0062194.71621944.259878.96987804z" id="L1_21"/><path d="m30 29c2.85 0 5-1.29 5-3s-2.15-3-5-3-5 1.29-5 3 2.15 3 5 3zm0-4c1.94 0 3 .75 3 1s-1.06 1-3 1-3-.75-3-1 1.06-1 3-1z" id="Shape"/></g></g><g transform="matrix(0.9375 0 0 0.9375 172 132)" id="L1_24"><path d="m41 36h-18a11 11 0 0 0 -11 11v11a3.1 3.1 0 0 0 3 3 2.868 2.868 0 0 0 3-3v-6a3 3 0 0 0 6 0v3.9a5.1 5.1 0 0 0 5.1 5.1h3.9a2.813 2.813 0 0 0 3-3 2.921 2.921 0 0 0 -3-3h-3v-1a5 5 0 0 1 5-5 5 5 0 0 1 5 5v4a3.1 3.1 0 0 0 3 3 2.868 2.868 0 0 0 3-3v-2a3 3 0 0 0 3.161 3 3.114 3.114 0 0 0 2.839-3.17v-8.83a11 11 0 0 0 -11-11z" fill="#c8d952"/><path d="m32 7.016a14.252 14.252 0 0 0 -14 13.984v10a5 5 0 0 0 5 5 7.233 7.233 0 0 1 5 2 6.826 6.826 0 0 1 2 4.828v1.065a2.075 2.075 0 0 0 1.664 2.08 2 2 0 0 0 2.336-1.973v-1.172a6.826 6.826 0 0 1 2-4.828 7.233 7.233 0 0 1 5-2 5 5 0 0 0 5-5v-10a13.674 13.674 0 0 0 -14-13.984z" fill="#8ec13f"/><path d="m39 16s-3 4-7 4-7-4-7-4 3-4 7-4 7 4 7 4z" fill="#f4f4e6"/><path d="m39 28s-3 4-7 4-7-4-7-4 3-4 7-4 7 4 7 4z" fill="#f4f4e6"/><path d="m32 21c4.449 0 7.665-4.221 7.8-4.4a1 1 0 0 0 0-1.2c-.135-.179-3.351-4.4-7.8-4.4s-7.665 4.221-7.8 4.4a1 1 0 0 0 0 1.2c.135.179 3.351 4.4 7.8 4.4zm0-8c2.561 0 4.729 1.975 5.683 3-.954 1.025-3.122 3-5.683 3s-4.729-1.975-5.683-3c.954-1.025 3.122-3 5.683-3z"/><path d="m31 15h2v2h-2z"/><path d="m32 23c-4.449 0-7.665 4.221-7.8 4.4a1 1 0 0 0 0 1.2c.135.179 3.351 4.4 7.8 4.4s7.665-4.221 7.8-4.4a1 1 0 0 0 0-1.2c-.135-.179-3.351-4.4-7.8-4.4zm0 8c-2.561 0-4.729-1.975-5.683-3 .954-1.025 3.122-3 5.683-3s4.729 1.975 5.683 3c-.954 1.025-3.122 3-5.683 3z"/><path d="m31 27h2v2h-2z"/><path d="m42.948 62h.21a3.742 3.742 0 0 0 2.6-1.027 3.969 3.969 0 0 0 1.027-1.64 3.924 3.924 0 0 0 2.43.667 4.149 4.149 0 0 0 3.785-4.17v-8.83a12.013 12.013 0 0 0 -8.189-11.369 5.991 5.991 0 0 0 2.189-4.631v-10a14.962 14.962 0 0 0 -4.31-10.7 14.312 14.312 0 0 0 -3.69-2.658v-3.642h-2v2.821a15.593 15.593 0 0 0 -4-.76v-4.061h-2v4.07a14.576 14.576 0 0 0 -4 .863v-2.933h-2v3.825a15.173 15.173 0 0 0 -8 13.175v10a5.991 5.991 0 0 0 2.189 4.631 12.013 12.013 0 0 0 -8.189 11.369v11a4.092 4.092 0 0 0 3.948 4 3.8 3.8 0 0 0 2.812-1.022 4.105 4.105 0 0 0 1.24-2.978v-2.537a4.16 4.16 0 0 0 4 0v.437a6.106 6.106 0 0 0 6.1 6.1h3.9a3.829 3.829 0 0 0 4-4.006 3.924 3.924 0 0 0 -4-3.994h-2a4 4 0 1 1 8 0v4a4.092 4.092 0 0 0 3.948 4zm-23.948-31v-10a13.186 13.186 0 0 1 13-12.984h.028a12.673 12.673 0 0 1 12.972 12.984v10a4 4 0 0 1 -4 4 8.209 8.209 0 0 0 -5.707 2.293 7.772 7.772 0 0 0 -2.293 5.535v1.172a1 1 0 0 1 -1.175.985 1.083 1.083 0 0 1 -.825-1.092v-1.065a7.772 7.772 0 0 0 -2.293-5.535 8.209 8.209 0 0 0 -5.707-2.293 4 4 0 0 1 -4-4zm16 17a6.006 6.006 0 0 0 -6 6v1a1 1 0 0 0 1 1h3a1.922 1.922 0 0 1 2 2 1.834 1.834 0 0 1 -2 2h-3.9a4.1 4.1 0 0 1 -4.1-4.1v-10.9h-2v7a2 2 0 0 1 -4 0v-5a4 4 0 0 1 4-4v-2a6.006 6.006 0 0 0 -6 6v11a2.1 2.1 0 0 1 -.617 1.525 1.8 1.8 0 0 1 -1.328.475 2.119 2.119 0 0 1 -2.055-2v-11a10.011 10.011 0 0 1 10-10 6.255 6.255 0 0 1 4.293 1.707 5.789 5.789 0 0 1 1.707 4.121v1.065a3.084 3.084 0 0 0 2.5 3.067 3.152 3.152 0 0 0 .5.04 3 3 0 0 0 3-3v-1.172a5.789 5.789 0 0 1 1.707-4.121 6.255 6.255 0 0 1 4.293-1.707 10.011 10.011 0 0 1 10 10v8.83a2.126 2.126 0 0 1 -1.892 2.17 2 2 0 0 1 -2.108-2v-7a9.01 9.01 0 0 0 -9-9v2a7.008 7.008 0 0 1 7 7v9a2.1 2.1 0 0 1 -.617 1.525 1.813 1.813 0 0 1 -1.328.475 2.119 2.119 0 0 1 -2.055-2v-4a5.985 5.985 0 0 0 -6-6z"/><path d="m21 31h2v2h-2z"/><path d="m41 20h2v2h-2z"/><path d="m23 21h2v2h-2z"/><path d="m24 39h2v2h-2z"/><path d="m27 47h2v2h-2z"/><path d="m38 45h2v2h-2z"/></g><g transform="matrix(0.1206284761428833 0 0 0.1206284761428833 254.99998474121094 21.999996185302734)" id="L1_25"><path d="m174.233 143.232-85.604 49.715c-108.646 63.096-108.24 220.146.731 282.679 96.064 55.127 217.969.592 240.897-107.767l1.725-8.154 66.75-115.015c4.772-8.223 3.414-18.628-3.308-25.351-7.829-7.829-20.397-8.221-28.699-.895l-31.801 28.062c-6.872 6.064-17.242 5.861-23.872-.467l-.319-.305c-7.361-7.026-7.614-18.595-.616-25.869 34.448-35.804 129.925-135.044 170.917-177.652 10.181-10.583 8.88-27.67-2.785-36.59l-.48-.367c-9.797-7.492-23.402-6.905-32.422 1.313-32.135 29.278-104.891 95.522-129.99 118.374-5.064 4.61-12.674 5.002-18.187.939-6.7-4.944-7.81-14.53-2.417-20.874l9.868-11.609c9.776-11.501 6.071-29.135-7.506-35.73-8.205-3.985-17.988-2.767-24.965 3.108z" fill="#fee97d"/><path d="m145.384 419.602c-83.4-47.86-103.204-151.113-59.202-225.207-106.164 64.026-104.961 219.175 3.177 281.231 79.834 45.814 177.527 15.869 221.414-57.743-48.303 28.965-110.996 32.932-165.389 1.719z" fill="#fee45a"/><path d="m182.253 266.017c-6.208-12.711-20.819-18.919-34.278-14.565l-39.461 12.767c-9.971 3.226-17.357 11.678-19.216 21.992l-4.204 23.313c-.857 4.754-2.913 9.211-5.972 12.95l-5.173 6.322c-6.807 8.32-8.336 19.769-3.951 29.584l5.467 12.235c2.387 5.342 3.066 11.29 1.946 17.033l-1.02 5.226c-2.113 10.83 2.235 21.905 11.152 28.404l23.667 17.249c4.861 3.543 10.72 5.451 16.735 5.451h23.163c2.166 0 4.326.248 6.436.739l13.725 3.192c10.139 2.358 20.757-1.018 27.673-8.798l1.465-1.649c3.859-4.342 8.957-7.396 14.606-8.752l15.655-3.757c9.052-2.172 16.465-8.641 19.844-17.314l11.461-29.417c3.927-10.079 1.79-21.514-5.511-29.495l-14.94-16.33c-4.208-4.599-6.786-10.455-7.338-16.664l-.545-6.128c-1.031-11.594-9.028-21.386-20.181-24.713l-13.795-4.114c-7.611-2.271-13.925-7.624-17.41-14.761z" fill="#ee6161"/><path d="m198.943 439.109.081-.091c-18.231-3.142-36.354-9.497-53.64-19.417-36.775-21.104-61.178-52.975-73.205-88.364-5.258 8.031-6.153 18.253-2.182 27.142l5.467 12.235c2.387 5.342 3.066 11.29 1.946 17.033l-1.02 5.226c-2.113 10.83 2.235 21.905 11.153 28.404l23.667 17.249c4.861 3.543 10.72 5.451 16.735 5.451h23.163c2.167 0 4.326.248 6.436.739l13.725 3.192c10.14 2.358 20.758-1.018 27.674-8.799z" fill="#e94444"/><path d="m461.704 113.174-32.475 35.605c-5.547 6.081-5.332 15.449.489 21.27 6.015 6.015 15.766 6.015 21.781 0l33.997-33.997c5.9-5.9 6.029-15.426.29-21.483l-1.523-1.607c-6.153-6.497-16.529-6.399-22.559.212z" fill="#fee45a"/><path d="m156.496 49.326-23.43 21.478c-7.477 6.854-7.731 18.559-.559 25.731 6.525 6.525 16.951 6.988 24.029 1.068l24.502-20.496c8.263-6.912 8.549-19.519.608-26.798l-1.071-.982c-6.813-6.245-17.268-6.245-24.079-.001z" fill="#fee45a"/><path d="m180.47 220.711c-2.054 0-4.099-.838-5.58-2.486-2.769-3.081-2.517-7.822.564-10.591l46.481-41.781c3.08-2.771 7.822-2.517 10.591.564s2.517 7.822-.564 10.591l-46.481 41.781c-1.432 1.287-3.225 1.922-5.011 1.922z" fill="#fee45a"/><path d="m258.808 210.787c-1.942 0-3.882-.75-5.351-2.244-2.902-2.955-2.86-7.704.095-10.606l29.247-28.728c2.957-2.902 7.704-2.859 10.606.095 2.902 2.955 2.86 7.704-.095 10.606l-29.247 28.728c-1.46 1.434-3.359 2.149-5.255 2.149z" fill="#fee45a"/><path d="m365.867 382.612c-1.714 0-3.437-.584-4.846-1.779-3.16-2.679-3.549-7.412-.871-10.571l59.336-69.983c2.678-3.16 7.411-3.551 10.571-.871 3.16 2.679 3.549 7.412.871 10.571l-59.336 69.983c-1.483 1.749-3.597 2.65-5.725 2.65z" fill="#fee45a"/><path d="m445.247 291.395c-1.772 0-3.551-.625-4.98-1.895-3.096-2.752-3.375-7.492-.623-10.588l8.621-9.699c2.75-3.096 7.492-3.374 10.588-.623 3.096 2.752 3.375 7.492.623 10.588l-8.621 9.699c-1.481 1.668-3.54 2.518-5.608 2.518z" fill="#fee45a"/></g><g transform="matrix(0.11719001829624176 0 0 0.11719001829624176 260 234)" id="L1_26"><circle cx="255" cy="255" r="255" fill="#27536b"/><g><path d="M141.735,129.496 189.935,124.168 141.735,118.839 136.407,70.638 131.078,118.839    82.878,124.168 131.078,129.496 136.407,177.696z" fill="#ffffff"/><path d="M367.206,280.689 404.202,276.599 367.206,272.509 363.115,235.512 359.026,272.509    322.029,276.599 359.026,280.689 363.115,317.685z" fill="#ffffff"/><path d="M164.145,364.432 192.881,361.256 164.145,358.079 160.968,329.343 157.79,358.079    129.055,361.256 157.79,364.432 160.968,393.168z" fill="#ffffff"/></g></g></defs><g fi:class="KUsePattern"><pattern id="pattern_L1_2" width="350" height="350" patternUnits="userSpaceOnUse"><use xlink:href="#L1_2" x="-350" y="-350"/><use xlink:href="#L1_2" x="0" y="-350"/><use xlink:href="#L1_2" x="350" y="-350"/><use xlink:href="#L1_2" x="-350" y="0"/><use xlink:href="#L1_2" x="0" y="0"/><use xlink:href="#L1_2" x="350" y="0"/><use xlink:href="#L1_2" x="-350" y="350"/><use xlink:href="#L1_2" x="0" y="350"/><use xlink:href="#L1_2" x="350" y="350"/></pattern><rect x="0" y="0" width="100%" height="100%" fill="url(#pattern_L1_2)"/></g><g fi:class="KUsePattern"><pattern id="pattern_L1_23" width="350" height="350" patternUnits="userSpaceOnUse"><use xlink:href="#L1_23" x="-350" y="-350"/><use xlink:href="#L1_23" x="0" y="-350"/><use xlink:href="#L1_23" x="350" y="-350"/><use xlink:href="#L1_23" x="-350" y="0"/><use xlink:href="#L1_23" x="0" y="0"/><use xlink:href="#L1_23" x="350" y="0"/><use xlink:href="#L1_23" x="-350" y="350"/><use xlink:href="#L1_23" x="0" y="350"/><use xlink:href="#L1_23" x="350" y="350"/></pattern><rect x="0" y="0" width="100%" height="100%" fill="url(#pattern_L1_23)"/></g><g fi:class="KUsePattern"><pattern id="pattern_L1_22" width="350" height="350" patternUnits="userSpaceOnUse"><use xlink:href="#L1_22" x="-350" y="-350"/><use xlink:href="#L1_22" x="0" y="-350"/><use xlink:href="#L1_22" x="350" y="-350"/><use xlink:href="#L1_22" x="-350" y="0"/><use xlink:href="#L1_22" x="0" y="0"/><use xlink:href="#L1_22" x="350" y="0"/><use xlink:href="#L1_22" x="-350" y="350"/><use xlink:href="#L1_22" x="0" y="350"/><use xlink:href="#L1_22" x="350" y="350"/></pattern><rect x="0" y="0" width="100%" height="100%" fill="url(#pattern_L1_22)"/></g><g fi:class="KUsePattern"><pattern id="pattern_L1_24" width="350" height="350" patternUnits="userSpaceOnUse"><use xlink:href="#L1_24" x="-350" y="-350"/><use xlink:href="#L1_24" x="0" y="-350"/><use xlink:href="#L1_24" x="350" y="-350"/><use xlink:href="#L1_24" x="-350" y="0"/><use xlink:href="#L1_24" x="0" y="0"/><use xlink:href="#L1_24" x="350" y="0"/><use xlink:href="#L1_24" x="-350" y="350"/><use xlink:href="#L1_24" x="0" y="350"/><use xlink:href="#L1_24" x="350" y="350"/></pattern><rect x="0" y="0" width="100%" height="100%" fill="url(#pattern_L1_24)"/></g><g fi:class="KUsePattern"><pattern id="pattern_L1_25" width="350" height="350" patternUnits="userSpaceOnUse"><use xlink:href="#L1_25" x="-350" y="-350"/><use xlink:href="#L1_25" x="0" y="-350"/><use xlink:href="#L1_25" x="350" y="-350"/><use xlink:href="#L1_25" x="-350" y="0"/><use xlink:href="#L1_25" x="0" y="0"/><use xlink:href="#L1_25" x="350" y="0"/><use xlink:href="#L1_25" x="-350" y="350"/><use xlink:href="#L1_25" x="0" y="350"/><use xlink:href="#L1_25" x="350" y="350"/></pattern><rect x="0" y="0" width="100%" height="100%" fill="url(#pattern_L1_25)"/></g><g fi:class="KUsePattern"><pattern id="pattern_L1_26" width="350" height="350" patternUnits="userSpaceOnUse"><use xlink:href="#L1_26" x="-350" y="-350"/><use xlink:href="#L1_26" x="0" y="-350"/><use xlink:href="#L1_26" x="350" y="-350"/><use xlink:href="#L1_26" x="-350" y="0"/><use xlink:href="#L1_26" x="0" y="0"/><use xlink:href="#L1_26" x="350" y="0"/><use xlink:href="#L1_26" x="-350" y="350"/><use xlink:href="#L1_26" x="0" y="350"/><use xlink:href="#L1_26" x="350" y="350"/></pattern><rect x="0" y="0" width="100%" height="100%" fill="url(#pattern_L1_26)"/></g></svg>